{"title":"Shoot to Kill(1988)-DVDRip Xvid-THC","uid":9139617,"size":1511648625,"categoryP":"video","categoryS":"movies","magnet":"?xt=urn:btih:79056b31e50610885c8e65c02d6f628118dc2bc5&amp;dn=Shoot+to+Kill%281988%29-DVDRip+Xvid-THC&amp;tr=udp%3A%2F%2Ftracker.openbittorrent.com%3A80&amp;tr=udp%3A%2F%2Fopen.demonii.com%3A1337&amp;tr=udp%3A%2F%2Ftracker.coppersurfer.tk%3A6969&amp;tr=udp%3A%2F%2Fexodus.desync.com%3A6969","seeders":1,"leechers":0,"uploader":"nitro1111","files":-1,"time":1383439565,"description":"&gt; This is probably the only decent release for this movie, the others you can find on TPB are only crappy encodes with hardcoded subs, this torrent was really hidden and almost dead, so I wanted to revive this ;)\n\nENJ0Y!\n\nFormat                                   : AVI\nFormat/Info                              : Audio Video Interleave\nFormat profile                           : OpenDML\nFormat settings                          : rec\nFile size                                : 1.40 GiB\nDuration                                 : 1h 49mn\nOverall bit rate                         : 1 822 Kbps\nWriting application                      : AVI-Mux GUI 1.17.8.3, Feb 16 201019:42:50\n\nVideo\nID                                       : 0\nFormat                                   : MPEG-4 Visual\nFormat profile                           : Advanced Simple@L5\nFormat settings, BVOP                    : 2\nFormat settings, QPel                    : No\nFormat settings, GMC                     : No warppoints\nFormat settings, Matrix                  : Default (H.263)\nCodec ID                                 : XVID\nCodec ID/Hint                            : XviD\nDuration                                 : 1h 49mn\nBit rate                                 : 1 369 Kbps\nWidth                                    : 720 pixels\nHeight                                   : 304 pixels\nDisplay aspect ratio                     : 2.35:1\nFrame rate                               : 23.976 fps\nColor space                              : YUV\nChroma subsampling                       : 4:2:0\nBit depth                                : 8 bits\nScan type                                : Progressive\nCompression mode                         : Lossy\nBits/(Pixel*Frame)                       : 0.261\nStream size                              : 1.05 GiB (75%)\nWriting library                          : XviD 1.2.1 (UTC 2008-12-04)\n\nAudio\nID                                       : 1\nFormat                                   : AC-3\nFormat/Info                              : Audio Coding 3\nMode extension                           : CM (complete main)\nFormat settings, Endianness              : Big\nCodec ID                                 : 2000\nDuration                                 : 1h 49mn\nBit rate mode                            : Constant\nBit rate                                 : 448 Kbps\nChannel count                            : 6 channels\nChannel positions                        : Front: L C R, Side: L R, LFE\nSampling rate                            : 48.0 KHz\nBit depth                                : 16 bits\nCompression mode                         : Lossy\nStream size                              : 352 MiB (25%)\nAlignment                                : Aligned on interleaves\nInterleave, duration                     : 64 ms (1.53 video frames)\nInterleave, preload duration             : 192 ms\n\n\nNFO: &lt;a href=&quot;\nhttp://img850.imageshack.us/img850/4741/fnq9.png&quot; rel=&quot;nofollow&quot; target=&quot;_NEW&quot;&gt;\nhttp://img850.imageshack.us/img850/4741/fnq9.png&lt;/a&gt;\n\nThumbnails: &lt;a href=&quot;\nhttp://img543.imageshack.us/img543/1792/ffqe.jpg&quot; rel=&quot;nofollow&quot; target=&quot;_NEW&quot;&gt;\nhttp://img543.imageshack.us/img543/1792/ffqe.jpg&lt;/a&gt;","torrent":{"xt":"urn:btih:79056b31e50610885c8e65c02d6f628118dc2bc5","amp;dn":"Shoot+to+Kill%281988%29-DVDRip+Xvid-THC","amp;tr":["udp%3A%2F%2Ftracker.openbittorrent.com%3A80","udp%3A%2F%2Fopen.demonii.com%3A1337","udp%3A%2F%2Ftracker.coppersurfer.tk%3A6969","udp%3A%2F%2Fexodus.desync.com%3A6969"],"infoHash":"79056b31e50610885c8e65c02d6f628118dc2bc5","infoHashBuffer":{"type":"Buffer","data":[121,5,107,49,229,6,16,136,92,142,101,192,45,111,98,129,24,220,43,197]},"announce":[],"urlList":[]}}